HIERARCHY
ROOT Hips
{
	OFFSET -3.958830 18.904000 13.208200
	CHANNELS 6 Xposition Yposition Zposition Zrotation Yrotation Xrotation 
	JOINT LHipJoint
	{
		OFFSET 0.000000 0.000000 0.000000
		CHANNELS 3 Zrotation Yrotation Xrotation
		JOINT LeftUpLeg
		{
			OFFSET 1.800000 -1.400000 0.085000
			CHANNELS 3 Zrotation Yrotation Xrotation
			JOINT LeftLeg
			{
				OFFSET 2.215000 -6.000000 0.000000
				CHANNELS 3 Zrotation Yrotation Xrotation
				JOINT LeftFoot
				{
					OFFSET 2.500000 -6.900000 0.000000
					CHANNELS 3 Zrotation Yrotation Xrotation
					JOINT LeftToeBase
					{
						OFFSET 0.200000 -0.500000 1.950000
						CHANNELS 3 Zrotation Yrotation Xrotation
						End Site
						{
							OFFSET 0.000000 0.000000 0.000000
						}
					}
				}
			}
		}
	}
	JOINT RHipJoint
	{
		OFFSET 0.000000 0.000000 0.000000
		CHANNELS 3 Zrotation Yrotation Xrotation
		JOINT RightUpLeg
		{
			OFFSET -1.800000 -1.400000 0.085000
			CHANNELS 3 Zrotation Yrotation Xrotation
			JOINT RightLeg
			{
				OFFSET -2.215000 -6.000000 0.000000
				CHANNELS 3 Zrotation Yrotation Xrotation
				JOINT RightFoot
				{
					OFFSET -2.500000 -6.900000 0.000000
					CHANNELS 3 Zrotation Yrotation Xrotation
					JOINT RightToeBase
					{
						OFFSET -0.200000 -0.500000 1.950000
						CHANNELS 3 Zrotation Yrotation Xrotation
						End Site
						{
							OFFSET 0.000000 0.000000 0.000000
						}
					}
				}
			}
		}
	}
	JOINT LowerBack
	{
		OFFSET 0.000000 0.000000 0.000000
		CHANNELS 3 Zrotation Yrotation Xrotation
		JOINT Spine
		{
			OFFSET -0.087000 1.940000 -0.288900
			CHANNELS 3 Zrotation Yrotation Xrotation
			JOINT Spine1
			{
				OFFSET 0.000000 1.950000 0.060000
				CHANNELS 3 Zrotation Yrotation Xrotation
				JOINT Neck
				{
					OFFSET 0.000000 0.000000 0.000000
					CHANNELS 3 Zrotation Yrotation Xrotation
					JOINT Neck1
					{
						OFFSET 0.000000 1.600000 0.340000
						CHANNELS 3 Zrotation Yrotation Xrotation
						JOINT Head
						{
							OFFSET 0.000000 1.667000 -0.240000
							CHANNELS 3 Zrotation Yrotation Xrotation
							End Site
							{
								OFFSET 0.000000 0.000000 0.000000
							}
						}
					}
				}
				JOINT LeftShoulder
				{
					OFFSET 0.000000 0.000000 0.000000
					CHANNELS 3 Zrotation Yrotation Xrotation
					JOINT LeftArm
					{
						OFFSET 2.700000 1.550000 -0.730000
						CHANNELS 3 Zrotation Yrotation Xrotation
						JOINT LeftForeArm
						{
							OFFSET 5.450000 0.000000 0.000000
							CHANNELS 3 Zrotation Yrotation Xrotation
							JOINT LeftHand
							{
								OFFSET 3.450000 0.000000 0.000000
								CHANNELS 3 Zrotation Yrotation Xrotation
								JOINT LeftHandIndex1
								{
									OFFSET 0.750000 0.000000 0.000000
									CHANNELS 3 Zrotation Yrotation Xrotation
									End Site
									{
										OFFSET 0.000000 0.000000 0.000000
									}
								}
							}
						}
					}
				}
				JOINT RightShoulder
				{
					OFFSET 0.000000 0.000000 0.000000
					CHANNELS 3 Zrotation Yrotation Xrotation
					JOINT RightArm
					{
						OFFSET -2.700000 1.550000 -0.730000
						CHANNELS 3 Zrotation Yrotation Xrotation
						JOINT RightForeArm
						{
							OFFSET -5.450000 0.000000 0.000000
							CHANNELS 3 Zrotation Yrotation Xrotation
							JOINT RightHand
							{
								OFFSET -3.450000 0.000000 0.000000
								CHANNELS 3 Zrotation Yrotation Xrotation
								JOINT RightHandIndex1
								{
									OFFSET -0.750000 0.000000 0.000000
									CHANNELS 3 Zrotation Yrotation Xrotation
									End Site
									{
										OFFSET 0.000000 0.000000 0.000000
									}
								}
							}
						}
					}
				}
			}
		}
	}
}
MOTION
Frames: 7
Frame Time: 0.016667
0.512860 16.803760 -0.796000 -4.629365 -3.829004 3.148657 -14.916097 12.781796 2.973175 1.448581 -0.425731 -4.595412 -6.933188 4.152718 3.720039 -0.691766 4.149617 3.579376 0.758820 0.167660 0.329020 18.607717 -10.911231 3.101839 0.551231 -0.263816 -4.642818 6.432878 -4.641477 3.452695 -0.810556 -3.759839 3.403876 0.059670 0.458480 0.596110 -4.382397 -0.681739 -7.430221 13.162509 0.166583 4.295894 -6.338667 0.406075 6.283615 3.772610 -2.849918 -9.932721 -6.318419 5.261984 39.677297 -1.546110 2.790010 -16.517040 -35.797691 -15.940849 5.483001 -46.060850 -5.647402 -1.038443 -11.791673 -16.158206 -0.780205 -3.636815 2.955423 1.043620 0.182820 0.108230 0.572330 28.003508 19.587339 7.634148 54.439879 10.917962 -1.275492 11.165901 14.810531 0.646519 1.691809 -1.378440 -0.198020 0.318730 -0.058070 -0.286470 
0.510960 16.801750 -0.794280 -4.665998 -3.876172 3.191772 -14.921176 12.763991 2.979334 1.453731 -0.419832 -4.487717 -6.943781 4.114505 3.427502 -0.674150 4.141668 3.578004 0.765860 0.179900 0.330930 18.607067 -10.911997 3.091955 0.627042 -0.258123 -4.707264 6.371883 -4.639630 3.587664 -0.809133 -3.759474 3.399823 0.061800 0.452230 0.604810 -4.374476 -0.652952 -7.418628 13.120365 0.272796 4.175403 -6.241388 0.471372 6.409814 3.833597 -2.811932 -9.933862 -6.207525 5.229822 39.446661 -1.653910 2.841740 -16.328200 -35.740891 -15.966344 5.462789 -46.264230 -5.832477 -0.967316 -11.669121 -16.043944 -0.786405 -3.639589 2.974515 1.028660 0.185190 0.110950 0.574050 27.851823 19.617687 7.698816 54.386185 10.809643 -1.396447 11.372891 15.197102 0.650109 1.693780 -1.396388 -0.182220 0.302540 -0.065170 -0.280260 
0.504600 16.799880 -0.792050 -4.631601 -3.892332 3.224226 -14.933223 12.753690 2.975886 1.525221 -0.414082 -4.464615 -7.066521 4.128306 3.360446 -0.662828 4.155471 3.570234 0.765110 0.183300 0.319080 18.599432 -10.905136 3.084661 0.643658 -0.254788 -4.707712 6.447072 -4.659774 3.648712 -0.805388 -3.778858 3.394256 0.061500 0.459860 0.616110 -4.346386 -0.648270 -7.401807 12.885832 0.343581 4.023831 -5.995722 0.485460 6.552991 3.795376 -2.797133 -9.934956 -6.138196 5.251050 39.113518 -1.639230 2.855970 -15.949450 -35.541540 -16.010684 5.489147 -46.598997 -5.925270 -0.935349 -11.680254 -16.097952 -0.787256 -3.652921 2.993364 1.012400 0.197210 0.104160 0.576630 27.784733 19.662898 7.732897 54.268669 10.787515 -1.469754 11.486558 15.528436 0.650412 1.687027 -1.413204 -0.170960 0.289600 -0.062130 -0.272510 
0.501830 16.799150 -0.786670 -4.617585 -3.836653 3.242014 -14.936976 12.745229 2.971949 1.538118 -0.402183 -4.418927 -7.123590 4.138528 3.322321 -0.653998 4.164788 3.567195 0.760140 0.182770 0.307230 18.599255 -10.899017 3.081591 0.601076 -0.265630 -4.637229 6.565314 -4.682327 3.608920 -0.803254 -3.801656 3.394560 0.060410 0.467650 0.620630 -4.342144 -0.644101 -7.389591 12.864845 0.347958 3.865183 -5.980405 0.452704 6.623093 3.831242 -2.735353 -9.943697 -6.005170 5.229129 38.972722 -1.769420 2.891700 -15.595440 -35.466535 -16.049208 5.535785 -46.821407 -5.892102 -0.922347 -11.648569 -16.035913 -0.793019 -3.663306 2.998978 0.999680 0.208630 0.098620 0.580700 27.649391 19.642533 7.736618 54.357924 10.758366 -1.504432 11.526665 15.708922 0.648114 1.682463 -1.419752 -0.166300 0.285590 -0.059950 -0.266920 
0.499550 16.801600 -0.782410 -4.656486 -3.852765 3.210544 -14.932873 12.750623 2.974830 1.683208 -0.400043 -4.406995 -7.313139 4.185553 3.368803 -0.642659 4.180971 3.559967 0.761680 0.183960 0.312940 18.601151 -10.897503 3.085101 0.646447 -0.276731 -4.581075 6.542236 -4.683880 3.621519 -0.808040 -3.800138 3.393356 0.056920 0.459660 0.622820 -4.349864 -0.653566 -7.400198 13.002597 0.322527 3.884105 -6.053374 0.430681 6.551958 3.887740 -2.719235 -9.985118 -6.004400 5.185614 39.143437 -1.993430 2.944930 -15.614580 -35.629546 -16.055032 5.580829 -46.687659 -5.693031 -1.010643 -11.806008 -16.144387 -0.769506 -3.654469 3.004455 0.999880 0.204560 0.104860 0.579600 27.677290 19.638075 7.752931 54.309761 10.674389 -1.530818 11.640175 15.744845 0.666978 1.687390 -1.419996 -0.160710 0.280230 -0.063920 -0.267250 
0.497310 16.803160 -0.779750 -4.589084 -4.030332 3.107196 -14.938933 12.771382 2.985734 1.707122 -0.390283 -4.368481 -7.445102 4.237956 3.522196 -0.643166 4.194362 3.553781 0.768010 0.187490 0.326600 18.588602 -10.907750 3.078520 0.601711 -0.280896 -4.586439 6.405083 -4.694139 3.860703 -0.810522 -3.784811 3.397881 0.057680 0.447700 0.617450 -4.319368 -0.672438 -7.414413 12.828306 0.366722 4.031543 -5.912122 0.486429 6.415419 3.926608 -2.710849 -9.971470 -6.018041 5.174493 39.525384 -2.130660 3.014430 -15.943250 -35.817914 -15.908629 5.510179 -46.587543 -5.625514 -1.026463 -11.957040 -16.133111 -0.750367 -3.642096 2.994223 1.013070 0.194060 0.113810 0.577760 27.808909 19.543280 7.733766 54.031361 10.609246 -1.527771 11.816841 15.683729 0.702852 1.690103 -1.411006 -0.163980 0.283660 -0.070330 -0.273950 
0.494100 16.801550 -0.776530 -4.586660 -4.209087 3.138327 -14.941148 12.769676 2.992282 1.784637 -0.393812 -4.363778 -7.618823 4.266178 3.490272 -0.638857 4.211132 3.549571 0.768820 0.185420 0.331190 18.585296 -10.913627 3.071440 0.658737 -0.266965 -4.690575 6.312250 -4.692889 4.044829 -0.809393 -3.768922 3.399672 0.056390 0.446010 0.617450 -4.308662 -0.660536 -7.412564 12.767164 0.435975 4.060071 -5.794555 0.544347 6.195550 3.905240 -2.727787 -9.834647 -6.022024 5.150617 39.450708 -2.120790 3.015840 -16.115760 -35.801448 -15.521987 5.345487 -46.664073 -5.599373 -1.018295 -12.263173 -16.214989 -0.708599 -3.641361 2.992615 1.016890 0.190030 0.116560 0.578050 27.837011 19.189153 7.609826 53.921939 10.552752 -1.483282 12.063222 15.585789 0.736607 1.694988 -1.408454 -0.165470 0.285020 -0.071950 -0.275170 
